<svg width="14" height="15" viewBox="0 0 14 15" fill="none" xmlns="http://www.w3.org/2000/svg">
<path fill-rule="evenodd" clip-rule="evenodd" d="M4.18395 0.90004C4.91535 0.866369 5.14855 0.858887 7.01166 0.858887C8.87476 0.858887 9.10796 0.866993 9.83874 0.90004C10.5695 0.933087 11.0683 1.04969 11.5048 1.21866C11.9619 1.39138 12.3765 1.66137 12.7194 2.01055C13.0686 2.35286 13.338 2.76689 13.5101 3.22456C13.6797 3.66103 13.7957 4.15985 13.8293 4.88938C13.863 5.62203 13.8705 5.85523 13.8705 7.71771C13.8705 9.58082 13.8624 9.81402 13.8293 10.5454C13.7963 11.2749 13.6797 11.7738 13.5101 12.2102C13.338 12.668 13.0682 13.0827 12.7194 13.4255C12.3765 13.7747 11.9619 14.044 11.5048 14.2161C11.0683 14.3857 10.5695 14.5017 9.83998 14.5354C9.10796 14.5691 8.87476 14.5765 7.01166 14.5765C5.14855 14.5765 4.91535 14.5684 4.18395 14.5354C3.45442 14.5023 2.9556 14.3857 2.51913 14.2161C2.06141 14.044 1.6467 13.7742 1.30387 13.4255C0.954928 13.083 0.684899 12.6685 0.512608 12.2109C0.343632 11.7744 0.227656 11.2756 0.193985 10.546C0.160314 9.81339 0.152832 9.58019 0.152832 7.71771C0.152832 5.8546 0.160938 5.6214 0.193985 4.89063C0.227032 4.15985 0.343632 3.66103 0.512608 3.22456C0.685153 2.76694 0.955388 2.35243 1.30449 2.00992C1.64683 1.66106 2.06113 1.39103 2.5185 1.21866C2.95497 1.04969 3.4538 0.93371 4.18333 0.90004H4.18395ZM9.78324 2.13463C9.05995 2.10158 8.84296 2.09472 7.01166 2.09472C5.18035 2.09472 4.96336 2.10158 4.24007 2.13463C3.57102 2.16518 3.20813 2.27679 2.9662 2.37095C2.64633 2.49565 2.41749 2.64343 2.17743 2.88349C1.94987 3.10487 1.77474 3.37438 1.66489 3.67225C1.57074 3.91418 1.45913 4.27707 1.42857 4.94612C1.39553 5.66942 1.38867 5.8864 1.38867 7.71771C1.38867 9.54902 1.39553 9.766 1.42857 10.4893C1.45913 11.1583 1.57074 11.5212 1.66489 11.7632C1.77463 12.0606 1.94984 12.3306 2.17743 12.5519C2.39878 12.7795 2.66877 12.9547 2.9662 13.0645C3.20813 13.1586 3.57102 13.2702 4.24007 13.3008C4.96336 13.3338 5.17973 13.3407 7.01166 13.3407C8.84358 13.3407 9.05995 13.3338 9.78324 13.3008C10.4523 13.2702 10.8152 13.1586 11.0571 13.0645C11.377 12.9398 11.6058 12.792 11.8459 12.5519C12.0735 12.3306 12.2487 12.0606 12.3584 11.7632C12.4526 11.5212 12.5642 11.1583 12.5947 10.4893C12.6278 9.766 12.6346 9.54902 12.6346 7.71771C12.6346 5.8864 12.6278 5.66942 12.5947 4.94612C12.5642 4.27707 12.4526 3.91418 12.3584 3.67225C12.2337 3.35238 12.0859 3.12355 11.8459 2.88349C11.6245 2.65594 11.355 2.48082 11.0571 2.37095C10.8152 2.27679 10.4523 2.16518 9.78324 2.13463ZM6.1356 9.8321C6.62485 10.0358 7.16964 10.0632 7.67692 9.90987C8.18419 9.75648 8.62248 9.43174 8.91692 8.99111C9.21136 8.55048 9.34369 8.02129 9.29131 7.49393C9.23893 6.96657 9.00508 6.47375 8.62971 6.09965C8.39043 5.86051 8.10109 5.6774 7.78255 5.56351C7.464 5.44961 7.12416 5.40776 6.78749 5.44096C6.45083 5.47417 6.12572 5.58161 5.83556 5.75554C5.5454 5.92948 5.29741 6.16559 5.10946 6.44686C4.9215 6.72814 4.79824 7.0476 4.74857 7.38223C4.69889 7.71686 4.72402 8.05834 4.82216 8.38209C4.92029 8.70584 5.08899 9.00381 5.3161 9.25454C5.54322 9.50527 5.8231 9.70252 6.1356 9.8321ZM4.51878 5.22484C4.84615 4.89747 5.2348 4.63779 5.66252 4.46062C6.09025 4.28345 6.54869 4.19226 7.01166 4.19226C7.47462 4.19226 7.93306 4.28345 8.36079 4.46062C8.78851 4.63779 9.17716 4.89747 9.50453 5.22484C9.83189 5.55221 10.0916 5.94085 10.2687 6.36858C10.4459 6.79631 10.5371 7.25474 10.5371 7.71771C10.5371 8.18068 10.4459 8.63911 10.2687 9.06684C10.0916 9.49457 9.83189 9.88321 9.50453 10.2106C8.84338 10.8717 7.94666 11.2432 7.01166 11.2432C6.07665 11.2432 5.17993 10.8717 4.51878 10.2106C3.85763 9.54943 3.4862 8.65272 3.4862 7.71771C3.4862 6.7827 3.85763 5.88599 4.51878 5.22484ZM11.319 4.71729C11.4001 4.64076 11.4651 4.54873 11.51 4.44666C11.5549 4.34458 11.5789 4.23453 11.5805 4.12302C11.5821 4.01151 11.5614 3.9008 11.5195 3.79746C11.4775 3.69412 11.4153 3.60024 11.3364 3.52138C11.2576 3.44252 11.1637 3.38029 11.0604 3.33836C10.957 3.29644 10.8463 3.27567 10.7348 3.2773C10.6233 3.27892 10.5132 3.30291 10.4112 3.34783C10.3091 3.39275 10.2171 3.45769 10.1405 3.53882C9.9917 3.69659 9.91021 3.90615 9.91337 4.12302C9.91654 4.33989 10.0041 4.54699 10.1575 4.70035C10.3108 4.85372 10.5179 4.94128 10.7348 4.94444C10.9517 4.9476 11.1612 4.86612 11.319 4.71729Z" fill="black"/>
</svg>
