<svg width="21" height="25" viewBox="0 0 21 25" fill="none" xmlns="http://www.w3.org/2000/svg">
<path d="M20.1666 12.4998C20.1666 11.167 19.0827 10.0832 17.7499 10.0832H16.5416V6.45817C16.5416 3.1268 13.8313 0.416504 10.4999 0.416504C7.16854 0.416504 4.45825 3.1268 4.45825 6.45817V10.0832H3.24992C1.91713 10.0832 0.833252 11.167 0.833252 12.4998V22.1665C0.833252 23.4993 1.91713 24.5832 3.24992 24.5832H17.7499C19.0827 24.5832 20.1666 23.4993 20.1666 22.1665V12.4998ZM6.87492 6.45817C6.87492 4.45959 8.50133 2.83317 10.4999 2.83317C12.4985 2.83317 14.1249 4.45959 14.1249 6.45817V10.0832H6.87492V6.45817Z" fill="white"/>
</svg>
