<svg width="13" height="15" viewBox="0 0 13 15" fill="none" xmlns="http://www.w3.org/2000/svg">
<path d="M1.10595 8.653L6.09419 1.50112V8.653H1.10595ZM7.02948 8.653C7.87124 6.31477 7.75901 3.17218 7.02948 0.858887C9.99748 1.81912 12.2671 5.473 12.3045 8.653H7.02948ZM12.3918 10.8852C12.1362 11.2843 11.8369 11.6272 11.4877 11.9203C11.0824 11.7395 10.7208 11.4589 10.434 11.1471C9.50489 12.3505 7.62807 12.3505 6.69901 11.1471C5.78242 12.3505 3.89313 12.3505 2.97654 11.1471C2.66477 11.4589 2.32183 11.7395 1.91654 11.9203C1.20572 11.3342 0.669481 10.4987 0.482422 9.5883H12.9156C12.8186 10.048 12.6413 10.4871 12.3918 10.8852ZM12.3045 14.5765C11.6436 14.5765 11.0201 14.4207 10.434 14.1089C9.28666 14.7324 7.8463 14.7324 6.69901 14.1089C5.55172 14.7324 4.11136 14.7324 2.97654 14.1089C2.2096 14.5391 1.33042 14.6077 0.482422 14.5765V13.3295C1.3616 13.3607 2.2096 13.2671 2.97654 12.7059C4.06148 13.4854 5.6016 13.4854 6.69901 12.7059C7.80266 13.4854 9.33654 13.4854 10.434 12.7059C11.1884 13.2671 12.0427 13.3607 12.9156 13.3295V14.5765H12.3045Z" fill="black"/>
</svg>
