<svg width="24" height="20" viewBox="0 0 24 20" fill="none" xmlns="http://www.w3.org/2000/svg">
<path d="M23.2742 2.93659C22.4201 3.30659 21.5026 3.55659 20.5381 3.66959C21.5333 3.08738 22.2779 2.17105 22.6329 1.09159C21.6978 1.63458 20.6745 2.01678 19.6073 2.22159C18.8896 1.47245 17.9391 0.975915 16.9032 0.809063C15.8673 0.642211 14.8041 0.81438 13.8785 1.29884C12.953 1.7833 12.2169 2.55295 11.7847 3.48829C11.3524 4.42363 11.2481 5.47234 11.4879 6.47159C9.59324 6.37858 7.73977 5.89714 6.04776 5.05849C4.35575 4.21985 2.86302 3.04275 1.66645 1.60359C1.25731 2.29359 1.02205 3.09359 1.02205 3.94559C1.02159 4.71258 1.21479 5.46783 1.58449 6.14432C1.9542 6.82081 2.48899 7.39763 3.1414 7.82359C2.38477 7.80005 1.64484 7.60017 0.983181 7.24059V7.30059C0.983105 8.37633 1.36372 9.41897 2.06043 10.2516C2.75715 11.0842 3.72706 11.6555 4.80558 11.8686C4.10369 12.0543 3.3678 12.0817 2.6535 11.9486C2.9578 12.8742 3.55054 13.6836 4.34874 14.2635C5.14695 14.8434 6.11066 15.1648 7.10496 15.1826C5.41708 16.478 3.33256 17.1807 1.18673 17.1776C0.806618 17.1777 0.426827 17.156 0.0493164 17.1126C2.22746 18.4818 4.76297 19.2084 7.35249 19.2056C16.1183 19.2056 20.9104 12.1076 20.9104 5.95159C20.9104 5.75159 20.9053 5.54959 20.8961 5.34959C21.8282 4.69056 22.6328 3.87448 23.2722 2.93959L23.2742 2.93659Z" fill="white"/>
</svg>
