<svg width="15" height="13" viewBox="0 0 15 13" fill="none" xmlns="http://www.w3.org/2000/svg">
<path d="M14.9186 2.31372C14.398 2.54442 13.8386 2.7003 13.2507 2.77076C13.8574 2.40774 14.3112 1.83638 14.5276 1.1633C13.9576 1.50187 13.3338 1.74019 12.6832 1.86789C12.2458 1.40078 11.6663 1.09118 11.0348 0.98714C10.4034 0.883103 9.75521 0.990456 9.19101 1.29253C8.6268 1.59461 8.17811 2.07451 7.91459 2.65772C7.65107 3.24093 7.58748 3.89483 7.73367 4.51789C6.5787 4.4599 5.44883 4.1597 4.41738 3.63679C3.38594 3.11387 2.47597 2.37991 1.74654 1.48255C1.49713 1.91279 1.35372 2.41161 1.35372 2.94286C1.35344 3.4211 1.47121 3.89202 1.69658 4.31383C1.92196 4.73564 2.24796 5.0953 2.64567 5.3609C2.18443 5.34623 1.73337 5.2216 1.33002 4.99739V5.0348C1.32998 5.70555 1.562 6.35567 1.98672 6.87483C2.41143 7.39399 3.00269 7.75022 3.66015 7.88308C3.23228 7.99888 2.78368 8.01594 2.34825 7.93296C2.53375 8.51011 2.89508 9.0148 3.38167 9.37639C3.86825 9.73797 4.45573 9.93834 5.06185 9.94946C4.03292 10.7572 2.7622 11.1953 1.45411 11.1934C1.22239 11.1935 0.990872 11.1799 0.760742 11.1529C2.08853 12.0066 3.63418 12.4597 5.21274 12.4579C10.5564 12.4579 13.4776 8.0321 13.4776 4.19366C13.4776 4.06895 13.4745 3.943 13.4689 3.81829C14.0371 3.40737 14.5276 2.89852 14.9174 2.31559L14.9186 2.31372Z" fill="black"/>
</svg>
